<svg version="1.1" id="Layer_1" xmlns="http://www.w3.org/2000/svg" xmlns:xlink="http://www.w3.org/1999/xlink" x="0px" y="0px"
	 width="100%" viewBox="0 0 128 128" enable-background="new 0 0 128 128" xml:space="preserve">
<path fill="#000000" opacity="1.000000" stroke="none" 
	d="
M83.000000,129.000000 
	C55.333332,129.000000 28.166666,129.000000 1.000000,129.000000 
	C1.000000,86.333336 1.000000,43.666668 1.000000,1.000000 
	C43.666668,1.000000 86.333336,1.000000 129.000000,1.000000 
	C129.000000,43.666668 129.000000,86.333336 129.000000,129.000000 
	C113.833336,129.000000 98.666664,129.000000 83.000000,129.000000 
M84.462234,29.938854 
	C74.614502,25.352415 64.266457,24.646212 53.926613,27.189737 
	C32.568672,32.443634 18.974886,52.309219 26.403107,72.497116 
	C29.477333,80.852043 31.858059,87.922211 26.528767,95.889519 
	C25.864550,96.882530 26.571901,99.706932 27.595715,100.658974 
	C28.626799,101.617760 30.973066,101.813484 32.515800,101.429787 
	C35.375584,100.718529 38.085552,99.379326 40.829430,98.233429 
	C45.339893,96.349800 49.508053,95.924225 54.608471,97.443687 
	C67.787056,101.369698 80.235382,98.435234 91.093010,90.134872 
	C100.401299,83.018929 105.967056,73.300072 105.598343,61.502090 
	C105.154068,47.286411 97.633034,36.942707 84.462234,29.938854 
z"/>
<path fill="#1CA260" opacity="1.000000" stroke="none" 
	d="
M84.823547,30.055809 
	C97.633034,36.942707 105.154068,47.286411 105.598343,61.502090 
	C105.967056,73.300072 100.401299,83.018929 91.093010,90.134872 
	C80.235382,98.435234 67.787056,101.369698 54.608471,97.443687 
	C49.508053,95.924225 45.339893,96.349800 40.829430,98.233429 
	C38.085552,99.379326 35.375584,100.718529 32.515800,101.429787 
	C30.973066,101.813484 28.626799,101.617760 27.595715,100.658974 
	C26.571901,99.706932 25.864550,96.882530 26.528767,95.889519 
	C31.858059,87.922211 29.477333,80.852043 26.403107,72.497116 
	C18.974886,52.309219 32.568672,32.443634 53.926613,27.189737 
	C64.266457,24.646212 74.614502,25.352415 84.823547,30.055809 
M56.437336,34.633583 
	C55.949646,34.734882 55.458267,34.821148 54.974792,34.939651 
	C36.458748,39.478279 26.112686,59.585480 35.390205,74.387657 
	C38.771523,79.782501 40.845810,84.194122 37.615486,90.001534 
	C37.536026,90.144394 37.850906,90.506599 38.011028,90.824371 
	C40.813435,89.833656 43.571774,88.707321 46.423512,87.918785 
	C47.708855,87.563377 49.363865,87.455269 50.538605,87.960976 
	C60.376690,92.196136 70.291550,92.300980 79.937881,87.915138 
	C97.555283,79.905128 104.847832,58.487495 89.548828,42.959377 
	C80.474686,33.749348 69.125389,32.945503 56.437336,34.633583 
z"/>
<path fill="#000000" opacity="1.000000" stroke="none" 
	d="
M56.826111,34.432751 
	C69.125389,32.945503 80.474686,33.749348 89.548828,42.959377 
	C104.847832,58.487495 97.555283,79.905128 79.937881,87.915138 
	C70.291550,92.300980 60.376690,92.196136 50.538605,87.960976 
	C49.363865,87.455269 47.708855,87.563377 46.423512,87.918785 
	C43.571774,88.707321 40.813435,89.833656 38.011028,90.824371 
	C37.850906,90.506599 37.536026,90.144394 37.615486,90.001534 
	C40.845810,84.194122 38.771523,79.782501 35.390205,74.387657 
	C26.112686,59.585480 36.458748,39.478279 54.974792,34.939651 
	C55.458267,34.821148 55.949646,34.734882 56.826111,34.432751 
M81.516518,65.247963 
	C79.707886,65.518250 77.210388,65.122169 76.201019,66.165611 
	C68.972725,73.637955 62.508331,73.981232 55.296612,66.921021 
	C53.627201,65.286682 52.084156,62.429565 49.257740,65.371239 
	C46.733631,67.998276 48.976578,70.012512 50.488335,71.808731 
	C57.750919,80.437912 70.597694,81.203674 78.624435,73.222908 
	C80.378754,71.478638 80.809288,68.402969 81.516518,65.247963 
M72.686737,56.891811 
	C75.421005,58.630482 78.423805,58.996395 79.742760,55.716263 
	C80.555214,53.695755 80.086006,50.660980 79.079941,48.633560 
	C78.625290,47.717358 75.056862,47.368755 73.610428,48.122974 
	C70.466934,49.762093 70.340302,52.763493 72.030472,55.793240 
	C72.110283,55.936302 72.149979,56.101738 72.686737,56.891811 
M50.711235,56.054432 
	C52.896511,56.402180 56.137611,57.777882 57.027225,56.864159 
	C58.472702,55.379501 59.092571,52.254589 58.665394,50.098526 
	C58.411324,48.816200 54.608223,46.828396 53.933353,47.309170 
	C52.101318,48.614288 50.982491,51.008644 49.818211,53.103085 
	C49.514950,53.648624 50.080128,54.676929 50.711235,56.054432 
z"/>
<path fill="#1CA15E" opacity="1.000000" stroke="none" 
	d="
M81.682999,65.594208 
	C80.809288,68.402969 80.378754,71.478638 78.624435,73.222908 
	C70.597694,81.203674 57.750919,80.437912 50.488335,71.808731 
	C48.976578,70.012512 46.733631,67.998276 49.257740,65.371239 
	C52.084156,62.429565 53.627201,65.286682 55.296612,66.921021 
	C62.508331,73.981232 68.972725,73.637955 76.201019,66.165611 
	C77.210388,65.122169 79.707886,65.518250 81.682999,65.594208 
z"/>
<path fill="#1B9F5D" opacity="1.000000" stroke="none" 
	d="
M72.447548,56.574280 
	C72.149979,56.101738 72.110283,55.936302 72.030472,55.793240 
	C70.340302,52.763493 70.466934,49.762093 73.610428,48.122974 
	C75.056862,47.368755 78.625290,47.717358 79.079941,48.633560 
	C80.086006,50.660980 80.555214,53.695755 79.742760,55.716263 
	C78.423805,58.996395 75.421005,58.630482 72.447548,56.574280 
z"/>
<path fill="#1CA15D" opacity="1.000000" stroke="none" 
	d="
M50.478836,55.768967 
	C50.080128,54.676929 49.514950,53.648624 49.818211,53.103085 
	C50.982491,51.008644 52.101318,48.614288 53.933353,47.309170 
	C54.608223,46.828396 58.411324,48.816200 58.665394,50.098526 
	C59.092571,52.254589 58.472702,55.379501 57.027225,56.864159 
	C56.137611,57.777882 52.896511,56.402180 50.478836,55.768967 
z"/>
</svg>